<svg xmlns="http://www.w3.org/2000/svg" xmlns:xlink="http://www.w3.org/1999/xlink" viewBox="0 0 152.74 151.59"><defs><style>.cls-1{isolation:isolate;}.cls-2,.cls-25,.cls-26,.cls-35,.cls-36,.cls-37,.cls-38,.cls-41,.cls-55,.cls-58,.cls-61,.cls-64,.cls-67,.cls-70,.cls-73,.cls-76,.cls-79,.cls-81,.cls-82,.cls-84,.cls-86,.cls-88,.cls-95{fill:#3457a5;}.cls-10,.cls-100,.cls-11,.cls-12,.cls-13,.cls-14,.cls-15,.cls-16,.cls-17,.cls-18,.cls-19,.cls-2,.cls-20,.cls-21,.cls-22,.cls-23,.cls-24,.cls-25,.cls-26,.cls-27,.cls-28,.cls-29,.cls-3,.cls-30,.cls-31,.cls-32,.cls-33,.cls-34,.cls-35,.cls-36,.cls-37,.cls-38,.cls-39,.cls-4,.cls-40,.cls-41,.cls-42,.cls-43,.cls-44,.cls-45,.cls-46,.cls-47,.cls-48,.cls-49,.cls-5,.cls-50,.cls-51,.cls-52,.cls-53,.cls-54,.cls-55,.cls-56,.cls-57,.cls-58,.cls-59,.cls-6,.cls-60,.cls-61,.cls-62,.cls-63,.cls-64,.cls-65,.cls-66,.cls-67,.cls-68,.cls-69,.cls-7,.cls-70,.cls-71,.cls-72,.cls-73,.cls-74,.cls-75,.cls-76,.cls-77,.cls-78,.cls-79,.cls-8,.cls-80,.cls-81,.cls-82,.cls-83,.cls-84,.cls-85,.cls-86,.cls-87,.cls-88,.cls-89,.cls-9,.cls-90,.cls-91,.cls-92,.cls-93,.cls-94,.cls-95,.cls-96,.cls-97,.cls-98,.cls-99{stroke-miterlimit:10;}.cls-2{stroke:url(#radial-gradient);}.cls-28,.cls-3,.cls-32,.cls-39,.cls-4,.cls-40,.cls-42,.cls-46,.cls-47,.cls-5,.cls-54,.cls-57,.cls-6,.cls-60,.cls-63,.cls-7,.cls-8,.cls-89,.cls-9,.cls-90,.cls-91{fill:#1c407f;}.cls-3{stroke:url(#radial-gradient-2);}.cls-4{stroke:url(#radial-gradient-3);}.cls-5{stroke:url(#radial-gradient-4);}.cls-6{stroke:url(#radial-gradient-5);}.cls-7{stroke:url(#radial-gradient-6);}.cls-8{stroke:url(#radial-gradient-7);}.cls-9{stroke:url(#radial-gradient-8);}.cls-10,.cls-11,.cls-12,.cls-13,.cls-14,.cls-15,.cls-29,.cls-33,.cls-49,.cls-66,.cls-69,.cls-72,.cls-75,.cls-78{fill:#405c84;}.cls-10{stroke:url(#radial-gradient-9);}.cls-11{stroke:url(#radial-gradient-10);}.cls-12{stroke:url(#radial-gradient-11);}.cls-13{stroke:url(#radial-gradient-12);}.cls-14{stroke:url(#radial-gradient-13);}.cls-15{stroke:url(#radial-gradient-14);}.cls-16,.cls-17,.cls-18,.cls-30,.cls-34{fill:#606b7f;}.cls-16{stroke:url(#radial-gradient-15);}.cls-17{stroke:url(#radial-gradient-16);}.cls-18{stroke:url(#radial-gradient-17);}.cls-19,.cls-20,.cls-50,.cls-51,.cls-83,.cls-85,.cls-92,.cls-94{fill:#a1baff;}.cls-19{stroke:url(#radial-gradient-18);}.cls-20{stroke:url(#radial-gradient-19);}.cls-21,.cls-22,.cls-23,.cls-24,.cls-43,.cls-44,.cls-45,.cls-48,.cls-52,.cls-53,.cls-56,.cls-59,.cls-62,.cls-65,.cls-68,.cls-71,.cls-74,.cls-77,.cls-80,.cls-87,.cls-93,.cls-96,.cls-97,.cls-98{fill:#7196ea;}.cls-21{stroke:url(#radial-gradient-20);}.cls-22{stroke:url(#radial-gradient-21);}.cls-23{stroke:url(#radial-gradient-22);}.cls-24{stroke:url(#radial-gradient-23);}.cls-25,.cls-26,.cls-35,.cls-36,.cls-37,.cls-38,.cls-43,.cls-44,.cls-45,.cls-48,.cls-50,.cls-51,.cls-52,.cls-53,.cls-55,.cls-56,.cls-58,.cls-59,.cls-61,.cls-62,.cls-64,.cls-65,.cls-67,.cls-68,.cls-70,.cls-71,.cls-73,.cls-74,.cls-76,.cls-77,.cls-79,.cls-80,.cls-81,.cls-82,.cls-84,.cls-86,.cls-88,.cls-92,.cls-94,.cls-96,.cls-98{mix-blend-mode:color-dodge;}.cls-25{stroke:url(#radial-gradient-24);}.cls-26{stroke:url(#radial-gradient-25);}.cls-27,.cls-31{fill:#45494f;}.cls-27,.cls-35{stroke:url(#radial-gradient-26);}.cls-28,.cls-36{stroke:url(#radial-gradient-27);}.cls-29,.cls-37{stroke:url(#radial-gradient-28);}.cls-30,.cls-38{stroke:url(#radial-gradient-29);}.cls-31{stroke:url(#radial-gradient-30);}.cls-32{stroke:url(#radial-gradient-31);}.cls-33{stroke:url(#radial-gradient-32);}.cls-34{stroke:url(#radial-gradient-33);}.cls-39{stroke:url(#radial-gradient-38);}.cls-40{stroke:url(#radial-gradient-39);}.cls-41,.cls-50{stroke:url(#radial-gradient-40);}.cls-42,.cls-51{stroke:url(#radial-gradient-41);}.cls-43{stroke:url(#radial-gradient-42);}.cls-44{stroke:url(#radial-gradient-43);}.cls-45{stroke:url(#radial-gradient-44);}.cls-46,.cls-52{stroke:url(#radial-gradient-45);}.cls-47,.cls-48{stroke:url(#radial-gradient-46);}.cls-49,.cls-53{stroke:url(#radial-gradient-48);}.cls-54,.cls-55,.cls-56{stroke:url(#radial-gradient-53);}.cls-57,.cls-58,.cls-59{stroke:url(#radial-gradient-56);}.cls-60,.cls-61,.cls-62{stroke:url(#radial-gradient-59);}.cls-63,.cls-64,.cls-65{stroke:url(#radial-gradient-62);}.cls-66,.cls-67,.cls-68{stroke:url(#radial-gradient-65);}.cls-69,.cls-70,.cls-71{stroke:url(#radial-gradient-68);}.cls-72,.cls-73,.cls-74{stroke:url(#radial-gradient-71);}.cls-75,.cls-76,.cls-77{stroke:url(#radial-gradient-74);}.cls-78,.cls-79,.cls-80{stroke:url(#radial-gradient-77);}.cls-81{stroke:url(#radial-gradient-80);}.cls-82{stroke:url(#radial-gradient-81);}.cls-83,.cls-84{stroke:url(#radial-gradient-82);}.cls-85,.cls-86{stroke:url(#radial-gradient-84);}.cls-87,.cls-88{stroke:url(#radial-gradient-86);}.cls-89{stroke:url(#radial-gradient-88);}.cls-90{stroke:url(#radial-gradient-89);}.cls-91{stroke:url(#radial-gradient-90);}.cls-92{stroke:url(#radial-gradient-91);}.cls-93,.cls-94{stroke:url(#radial-gradient-92);}.cls-95,.cls-96{stroke:url(#radial-gradient-94);}.cls-97,.cls-98{stroke:url(#radial-gradient-96);}.cls-99{fill:#60a8b2;stroke:url(#radial-gradient-98);}.cls-100{fill:#a3f3ff;opacity:0.58;stroke:url(#radial-gradient-99);}</style><radialGradient id="radial-gradient" cx="45.01" cy="91.93" r="46.18" gradientUnits="userSpaceOnUse"><stop offset="0" stop-color="#00bf57" stop-opacity="0.1"/><stop offset="0.96" stop-color="#1b007f" stop-opacity="0"/></radialGradient><radialGradient id="radial-gradient-2" cx="95.05" cy="135.28" r="0.41" xlink:href="#radial-gradient"/><radialGradient id="radial-gradient-3" cx="100.12" cy="135.45" r="1.46" xlink:href="#radial-gradient"/><radialGradient id="radial-gradient-4" cx="73.35" cy="128.87" r="5.19" xlink:href="#radial-gradient"/><radialGradient id="radial-gradient-5" cx="91.35" cy="134.99" r="0.53" xlink:href="#radial-gradient"/><radialGradient id="radial-gradient-6" cx="98.69" cy="147.32" r="5.68" xlink:href="#radial-gradient"/><radialGradient id="radial-gradient-7" cx="76.29" cy="150.77" r="5.05" xlink:href="#radial-gradient"/><radialGradient id="radial-gradient-8" cx="113.95" cy="141.1" r="1.17" xlink:href="#radial-gradient"/><radialGradient id="radial-gradient-9" cx="110.52" cy="133.91" r="0.83" xlink:href="#radial-gradient"/><radialGradient id="radial-gradient-10" cx="98.67" cy="135.3" r="1.02" xlink:href="#radial-gradient"/><radialGradient id="radial-gradient-11" cx="101.69" cy="135.19" r="0.87" xlink:href="#radial-gradient"/><radialGradient id="radial-gradient-12" cx="104.59" cy="134.9" r="1.42" xlink:href="#radial-gradient"/><radialGradient id="radial-gradient-13" cx="137.99" cy="117.92" r="6.22" xlink:href="#radial-gradient"/><radialGradient id="radial-gradient-14" cx="122" cy="135.17" r="7.59" xlink:href="#radial-gradient"/><radialGradient id="radial-gradient-15" cx="98.5" cy="114.77" r="2.25" xlink:href="#radial-gradient"/><radialGradient id="radial-gradient-16" cx="151.81" cy="76.9" r="0.82" xlink:href="#radial-gradient"/><radialGradient id="radial-gradient-17" cx="145.66" cy="84.04" r="4.83" xlink:href="#radial-gradient"/><radialGradient id="radial-gradient-18" cx="86.58" cy="22.06" r="34.76" xlink:href="#radial-gradient"/><radialGradient id="radial-gradient-19" cx="20.62" cy="30.34" r="18.42" xlink:href="#radial-gradient"/><radialGradient id="radial-gradient-20" cx="15.09" cy="97.44" r="24.2" xlink:href="#radial-gradient"/><radialGradient id="radial-gradient-21" cx="3.42" cy="54.41" r="0.76" xlink:href="#radial-gradient"/><radialGradient id="radial-gradient-22" cx="1.46" cy="68.66" r="7.54" xlink:href="#radial-gradient"/><radialGradient id="radial-gradient-23" cx="72.19" cy="35.41" r="24.5" xlink:href="#radial-gradient"/><radialGradient id="radial-gradient-24" cx="133.05" cy="88.52" r="3.83" xlink:href="#radial-gradient"/><radialGradient id="radial-gradient-25" cx="126.76" cy="98.66" r="3.47" xlink:href="#radial-gradient"/><radialGradient id="radial-gradient-26" cx="131.71" cy="92.36" r="7.28" xlink:href="#radial-gradient"/><radialGradient id="radial-gradient-27" cx="82.05" cy="129.9" r="14.67" xlink:href="#radial-gradient"/><radialGradient id="radial-gradient-28" cx="110.67" cy="124.31" r="21.42" xlink:href="#radial-gradient"/><radialGradient id="radial-gradient-29" cx="123.81" cy="104.29" r="14.2" xlink:href="#radial-gradient"/><radialGradient id="radial-gradient-30" cx="143.54" cy="64.68" r="21.23" xlink:href="#radial-gradient"/><radialGradient id="radial-gradient-31" cx="64.84" cy="97.01" r="25.62" xlink:href="#radial-gradient"/><radialGradient id="radial-gradient-32" cx="81.66" cy="115.11" r="15.77" xlink:href="#radial-gradient"/><radialGradient id="radial-gradient-33" cx="144.7" cy="94.75" r="14.88" xlink:href="#radial-gradient"/><radialGradient id="radial-gradient-38" cx="98.27" cy="120.52" r="10.13" xlink:href="#radial-gradient"/><radialGradient id="radial-gradient-39" cx="112.5" cy="108.52" r="11.32" xlink:href="#radial-gradient"/><radialGradient id="radial-gradient-40" cx="55.03" cy="120.83" r="24.71" xlink:href="#radial-gradient"/><radialGradient id="radial-gradient-41" cx="64.06" cy="117.2" r="28.01" xlink:href="#radial-gradient"/><radialGradient id="radial-gradient-42" cx="132.9" cy="125.53" r="3.44" xlink:href="#radial-gradient"/><radialGradient id="radial-gradient-43" cx="109.49" cy="143.36" r="2.98" xlink:href="#radial-gradient"/><radialGradient id="radial-gradient-44" cx="85.89" cy="150.29" r="3.95" xlink:href="#radial-gradient"/><radialGradient id="radial-gradient-45" cx="81.97" cy="128.66" r="29.13" xlink:href="#radial-gradient"/><radialGradient id="radial-gradient-46" cx="77.57" cy="131.75" r="1.24" xlink:href="#radial-gradient"/><radialGradient id="radial-gradient-48" cx="117.53" cy="130.01" r="16.07" xlink:href="#radial-gradient"/><radialGradient id="radial-gradient-53" cx="64.7" cy="125.49" r="1.97" xlink:href="#radial-gradient"/><radialGradient id="radial-gradient-56" cx="93.29" cy="135.15" r="1.17" xlink:href="#radial-gradient"/><radialGradient id="radial-gradient-59" cx="98.59" cy="135.32" r="2.37" xlink:href="#radial-gradient"/><radialGradient id="radial-gradient-62" cx="74.16" cy="131.18" r="1.68" xlink:href="#radial-gradient"/><radialGradient id="radial-gradient-65" cx="124.35" cy="126.56" r="10.73" xlink:href="#radial-gradient"/><radialGradient id="radial-gradient-68" cx="108.04" cy="134.39" r="1.34" xlink:href="#radial-gradient"/><radialGradient id="radial-gradient-71" cx="99.33" cy="135.34" r="1.26" xlink:href="#radial-gradient"/><radialGradient id="radial-gradient-74" cx="102.75" cy="135.12" r="0.35" xlink:href="#radial-gradient"/><radialGradient id="radial-gradient-77" cx="100.31" cy="135.27" r="0.43" xlink:href="#radial-gradient"/><radialGradient id="radial-gradient-80" cx="4.16" cy="52.07" r="1.47" xlink:href="#radial-gradient"/><radialGradient id="radial-gradient-81" cx="43.35" cy="6.99" r="1.76" xlink:href="#radial-gradient"/><radialGradient id="radial-gradient-82" cx="8.95" cy="48.46" r="6.83" xlink:href="#radial-gradient"/><radialGradient id="radial-gradient-84" cx="37.36" cy="19.55" r="12.06" xlink:href="#radial-gradient"/><radialGradient id="radial-gradient-86" cx="25.06" cy="40.65" r="20.96" xlink:href="#radial-gradient"/><radialGradient id="radial-gradient-88" cx="39.77" cy="8.74" r="2.79" xlink:href="#radial-gradient"/><radialGradient id="radial-gradient-89" cx="24.23" cy="26.72" r="19.49" xlink:href="#radial-gradient"/><radialGradient id="radial-gradient-90" cx="20.71" cy="37.02" r="9.75" xlink:href="#radial-gradient"/><radialGradient id="radial-gradient-91" cx="0.64" cy="79.56" r="0.46" xlink:href="#radial-gradient"/><radialGradient id="radial-gradient-92" cx="5.27" cy="78.64" r="3.92" xlink:href="#radial-gradient"/><radialGradient id="radial-gradient-94" cx="37.01" cy="57.94" r="9.52" xlink:href="#radial-gradient"/><radialGradient id="radial-gradient-96" cx="23.24" cy="60.71" r="21.04" xlink:href="#radial-gradient"/><radialGradient id="radial-gradient-98" cx="93.31" cy="68.7" r="21.06" gradientUnits="userSpaceOnUse"><stop offset="0" stop-color="#ff40a8" stop-opacity="0.1"/><stop offset="0.09" stop-color="#fc54a4" stop-opacity="0.09"/><stop offset="0.96" stop-color="#e4ff80" stop-opacity="0"/></radialGradient><radialGradient id="radial-gradient-99" cx="93.31" cy="68.7" r="11.76" xlink:href="#radial-gradient-98"/></defs><title>Asset 2</title><g class="cls-1"><g id="Layer_2" data-name="Layer 2"><g id="Layer_2-2" data-name="Layer 2"><path class="cls-2" d="M59.41,149.16A51.6,51.6,0,0,1,49.28,141a53,53,0,0,1-6.37-8.12c-.4-.63-.78-1.27-1.16-1.92a22.69,22.69,0,0,1-3-10.59,55.08,55.08,0,0,1,.31-8.32,57.81,57.81,0,0,1,3.84-15.39c.6-1.49,1.27-3,2-4.42v0c0-.51,0-1,0-1.54s0-1,0-1.56,0-1,0-1.55,0-1,.05-1.56,0-1,.09-1.51c0-.25,0-.5.05-.76s0-.7.08-1c.08-1,.19-1.93.3-2.9.07-.59.16-1.18.24-1.78,0-.33.09-.65.15-1l0-.23c0-.13,0-.26.07-.39.1-.63.21-1.26.33-1.88,0-.19.06-.36.1-.53.14-.72.28-1.42.44-2.13,0,0,0,0,0,0,0-.25.11-.49.17-.74A45.25,45.25,0,0,1,66.67,32.84a83.63,83.63,0,0,0-15.43,9.59h0c-.7.55-1.39,1.11-2.09,1.68s-1.35,1.16-2,1.75S45.84,47,45.21,47.63a1.31,1.31,0,0,0-.12.11c-.58.55-1.16,1.11-1.72,1.68l-.13.13h0a.08.08,0,0,0,0,0A51.5,51.5,0,0,1,31.81,65.69c-.73.71-1.49,1.39-2.26,2h0c-.39.69-.77,1.39-1.15,2.1s-.74,1.43-1.09,2.15-.61,1.26-.89,1.9-.65,1.41-1,2.12c-.37.86-.73,1.72-1.06,2.6-.27.68-.53,1.37-.77,2.06s-.43,1.2-.63,1.82c-.12.35-.23.69-.34,1a2.25,2.25,0,0,0-.08.24c-.18.56-.35,1.13-.52,1.7s-.27.94-.39,1.41a84.17,84.17,0,0,0-2,35.18c.21,1.48.49,3,.81,4.46a76.17,76.17,0,0,0,38.92,22.63,75,75,0,0,0,11.12,1.7h0A74.85,74.85,0,0,1,59.41,149.16Z"/><path class="cls-3" d="M94.8,135.26l.34,0h0Z"/><path class="cls-4" d="M99.79,135.3Z"/><path class="cls-5" d="M66.84,126.49A58.22,58.22,0,0,0,76,131.16h0A58.18,58.18,0,0,1,66.84,126.49Z"/><path class="cls-6" d="M90.88,134.94l.47.06.46,0-.46,0Z"/><path class="cls-7" d="M94.35,148.9c-1,.25-2.06.48-3.1.69,1-.21,2.07-.43,3.11-.69a78.81,78.81,0,0,0,8.12-2.47c1.2-.44,2.39-.91,3.55-1.41-1.16.5-2.35,1-3.55,1.41A76.6,76.6,0,0,1,94.35,148.9Z"/><path class="cls-8" d="M70.53,150.86h0a76.23,76.23,0,0,0,11.21,0h0A76.22,76.22,0,0,1,70.53,150.86Z"/><path class="cls-9" d="M112.89,141.68c.71-.38,1.42-.77,2.11-1.18h0C114.31,140.91,113.6,141.3,112.89,141.68Z"/><path class="cls-10" d="M109.66,134.1l.4-.08,1.3-.3c-.44.1-.87.21-1.3.29Z"/><path class="cls-11" d="M99.81,135.3h0Z"/><path class="cls-12" d="M100.61,135.26l.66,0,1.48-.11h0c-.5,0-1,.08-1.48.1Z"/><path class="cls-13" d="M102.75,135.12c1-.08,2-.19,2.93-.33.24,0,.47-.08.71-.12l-.71.11C104.71,134.92,103.72,135,102.75,135.12Z"/><path class="cls-14" d="M136.4,120.54h0c-.18.59-.37,1.18-.58,1.76h0a76.5,76.5,0,0,0,6.81-10.21c-1.51.51-3,1-4.55,1.4A52.16,52.16,0,0,1,136.4,120.54Z"/><path class="cls-15" d="M115,140.5h0a74.74,74.74,0,0,0,15-11.69,75.3,75.3,0,0,1-15,11.69Z"/><path class="cls-16" d="M100.34,114.57c-.62.12-1.25.23-1.88.32.46.09.91.19,1.38.27C100,115,100.18,114.78,100.34,114.57Z"/><path class="cls-17" d="M151.69,77.05l.51-.7c-.26.35-.52.71-.79,1.06Z"/><path class="cls-18" d="M141.36,88.68a83.85,83.85,0,0,0,8.55-9.34A96.45,96.45,0,0,1,141.36,88.68Z"/><path class="cls-19" d="M48.63,22.62a84.6,84.6,0,0,1,51.51,1.88,80.18,80.18,0,0,1,8,3.39,83.54,83.54,0,0,1,14.24,8.67q2.77,2.09,5.34,4.35L129,42c-7.31-15.58-18.81-29.64-34.89-36.64C77.32-1.92,59.55-.73,43.3,7a51.75,51.75,0,0,1,4.26,16Z"/><path class="cls-20" d="M32.69,13.2c1.32-.94,2.68-1.82,4.07-2.67-1.39.85-2.75,1.73-4.07,2.66A76,76,0,0,0,6.35,46c-.61,1.44-1.14,2.9-1.65,4.38.51-1.48,1-2.94,1.65-4.37A75.91,75.91,0,0,1,32.69,13.2Z"/><path class="cls-21" d="M21.68,86.89q.18-.7.39-1.41c.17-.57.34-1.14.52-1.7a2.25,2.25,0,0,1,.08-.24c.11-.35.22-.69.34-1,.2-.62.41-1.22.63-1.82s.5-1.38.77-2.06c.33-.88.69-1.74,1.06-2.6.3-.71.61-1.43,1-2.12s.58-1.27.89-1.9.72-1.44,1.09-2.15.76-1.41,1.15-2.1h0A51.63,51.63,0,0,1,8.81,78.51l-1.17.29a52,52,0,0,1-7,1.11h0a76,76,0,0,0,14,39.49,76.75,76.75,0,0,0,5.8,7.13c-.32-1.49-.6-3-.81-4.46A84.17,84.17,0,0,1,21.68,86.89Z"/><path class="cls-22" d="M3.62,53.73c-.11.35-.22.71-.32,1.06,0,.11,0,.22-.08.32,0-.1,0-.21.08-.31C3.4,54.44,3.51,54.09,3.62,53.73Z"/><path class="cls-23" d="M2.4,58.35l0-.14,0,.14A75,75,0,0,0,.54,77.46c0,.58,0,1.16.08,1.74,0-.58-.07-1.16-.08-1.74A75.08,75.08,0,0,1,2.4,58.35Z"/><path class="cls-24" d="M58.56,20.48a84,84,0,0,0-9.93,2.14l-1.07.3h0a51.92,51.92,0,0,1-2.11,20.78,50.31,50.31,0,0,1-2.21,5.84h0l.13-.13c.56-.57,1.14-1.13,1.72-1.68a1.31,1.31,0,0,1,.12-.11c.63-.6,1.26-1.19,1.91-1.76s1.34-1.18,2-1.75,1.39-1.13,2.09-1.68h0a83.63,83.63,0,0,1,15.43-9.59,45,45,0,0,1,14.79-6.59,41.75,41.75,0,0,1,10.22-1.66c1.1,0,2.2,0,3.3-.14,1.51-.15,3.65.11,5.16.05a83.21,83.21,0,0,0-18.43-4.39A84.22,84.22,0,0,0,58.56,20.48Z"/><path class="cls-25" d="M134.82,85.12a45.5,45.5,0,0,1-3.73,8,54.92,54.92,0,0,0,3.82-7.77Z"/><path class="cls-26" d="M129.69,95.35a44.65,44.65,0,0,1-3.8,4.88C127.34,99.39,128.72,96.87,129.69,95.35Z"/><path class="cls-27" d="M135.61,93.66c.54-.42,1.08-.85,1.61-1.29a52,52,0,0,0-1.61-5.25c-.22-.59-.45-1.18-.7-1.77a54.92,54.92,0,0,1-3.82,7.77c-.18.32-.37.63-.57.94s-.55.86-.83,1.29c-1,1.52-2.35,4-3.8,4.88q3.54-2.06,6.83-4.41C133.7,95.12,134.66,94.4,135.61,93.66Z"/><path class="cls-28" d="M97,135.33h1.31c.49,0,1,0,1.47,0a85.51,85.51,0,0,1-9.18-4.85c-2.12-1.28-4.19-2.66-6.19-4.13L84,126a59.05,59.05,0,0,1-19.46-1c.76.52,1.52,1,2.3,1.49A58.18,58.18,0,0,0,76,131.15h0l.3.12c.86.34,1.73.66,2.6,1l.18.06,1.39.45.56.17,1.12.32.84.23.92.23,1,.24.77.17,1.2.24.66.12q.66.12,1.32.21l.57.09,1.42.18.47.05.46,0c.55.05,1.1.11,1.64.14s.9.06,1.35.08l.34,0h.16l.66,0C96.31,135.33,96.65,135.34,97,135.33Z"/><path class="cls-29" d="M118,116.56c-2.7.08-5.4,0-8.11-.14a56.63,56.63,0,0,1-9.76,5.34,57.23,57.23,0,0,1-12.43,3.72c-1.2.22-2.42.39-3.65.53l.41.31c2,1.47,4.07,2.85,6.19,4.13a85.51,85.51,0,0,0,9.18,4.85H100l.61,0,.66,0c.49,0,1-.06,1.48-.1h0c1-.08,2-.2,2.93-.34l.71-.11c.66-.1,1.32-.19,2-.32l1.3-.25.4-.09c.43-.08.86-.19,1.3-.29l.14,0A57.93,57.93,0,0,0,134,122.55q1.2-1,2.37-2h0a52.16,52.16,0,0,0,1.67-7,79.85,79.85,0,0,1-9.8,2.1A84.77,84.77,0,0,1,118,116.56Z"/><path class="cls-30" d="M113.68,113.59c-1.24,1-2.52,1.94-3.84,2.83,2.71.18,5.41.22,8.11.14a84.77,84.77,0,0,0,10.32-1,79.85,79.85,0,0,0,9.8-2.1,52.29,52.29,0,0,0-.85-21.13c-.53.44-1.07.87-1.61,1.29-1,.74-1.91,1.46-2.89,2.16q-3.28,2.36-6.83,4.41s0,0-.06,0l-.12.16A57.53,57.53,0,0,1,113.68,113.59Z"/><path class="cls-31" d="M137.22,92.37c.62-.51,1.24-1,1.84-1.57l.21-.18c.7-.62,1.4-1.27,2.09-1.94a96.45,96.45,0,0,0,8.55-9.34c.51-.64,1-1.28,1.5-1.93.27-.35.53-.71.79-1.06A75.27,75.27,0,0,0,150,57.22a74.29,74.29,0,0,0-8.54-20.87c.9,1.5.35,5.14.39,6.88.05,2.35,0,4.71-.16,7.05-.59,9.4-1.82,19.77-4.77,29.31-.6,2-1.28,3.89-2,5.76.25.59.48,1.18.7,1.77A52,52,0,0,1,137.22,92.37Z"/><path class="cls-32" d="M46.83,71.83c-.16.71-.3,1.41-.44,2.13,0,.17-.07.34-.1.53-.12.62-.23,1.25-.33,1.88,0,.13-.05.26-.07.39l0,.23c-.06.33-.1.65-.15,1-.08.6-.17,1.19-.24,1.78-.11,1-.22,1.94-.3,2.9,0,.35-.06.71-.08,1s0,.51-.05.76c0,.5-.07,1-.09,1.51s0,1-.05,1.56,0,1,0,1.55,0,1,0,1.56,0,1,0,1.54v0h0a59.16,59.16,0,0,1,4.16-7,58.95,58.95,0,0,0-.49,23.12,58.8,58.8,0,0,0,16,16.68h0A59.05,59.05,0,0,0,84,126a83.76,83.76,0,0,1-16.2-15.78h0c-1.08-1.37-2.11-2.78-3.11-4.24A45,45,0,0,1,48.3,80.86,44.25,44.25,0,0,1,47,71.05c-.06.25-.12.49-.17.74C46.83,71.8,46.84,71.82,46.83,71.83Z"/><path class="cls-33" d="M67.8,110.23A83.76,83.76,0,0,0,84,126c1.23-.14,2.45-.31,3.65-.53a57.18,57.18,0,0,0,9.14-7.17c1.07-1,2.08-2.07,3-3.15-.47-.08-.92-.18-1.38-.27A45.17,45.17,0,0,1,64.68,106c1,1.46,2,2.87,3.11,4.24Z"/><path class="cls-34" d="M152.2,76.35l-.51.7-.28.36c-.49.65-1,1.29-1.5,1.93a83.85,83.85,0,0,1-8.55,9.34c-.69.67-1.39,1.32-2.09,1.94l-.21.18c-.6.53-1.22,1.06-1.84,1.57a52.29,52.29,0,0,1,.85,21.13c1.53-.41,3-.89,4.55-1.4a75.61,75.61,0,0,0,9.53-33.69C152,78,152.36,76.8,152.2,76.35Z"/><path class="cls-35" d="M135.61,93.66c.54-.42,1.08-.85,1.61-1.29a52,52,0,0,0-1.61-5.25c-.22-.59-.45-1.18-.7-1.77a54.92,54.92,0,0,1-3.82,7.77c-.18.32-.37.63-.57.94s-.55.86-.83,1.29c-1,1.52-2.35,4-3.8,4.88q3.54-2.06,6.83-4.41C133.7,95.12,134.66,94.4,135.61,93.66Z"/><path class="cls-36" d="M97,135.33h1.31c.49,0,1,0,1.47,0a85.51,85.51,0,0,1-9.18-4.85c-2.12-1.28-4.19-2.66-6.19-4.13L84,126a59.05,59.05,0,0,1-19.46-1c.76.52,1.52,1,2.3,1.49A58.18,58.18,0,0,0,76,131.15h0l.3.12c.86.34,1.73.66,2.6,1l.18.06,1.39.45.56.17,1.12.32.84.23.92.23,1,.24.77.17,1.2.24.66.12q.66.12,1.32.21l.57.09,1.42.18.47.05.46,0c.55.05,1.1.11,1.64.14s.9.06,1.35.08l.34,0h.16l.66,0C96.31,135.33,96.65,135.34,97,135.33Z"/><path class="cls-37" d="M118,116.56c-2.7.08-5.4,0-8.11-.14a56.63,56.63,0,0,1-9.76,5.34,57.23,57.23,0,0,1-12.43,3.72c-1.2.22-2.42.39-3.65.53l.41.31c2,1.47,4.07,2.85,6.19,4.13a85.51,85.51,0,0,0,9.18,4.85H100l.61,0,.66,0c.49,0,1-.06,1.48-.1h0c1-.08,2-.2,2.93-.34l.71-.11c.66-.1,1.32-.19,2-.32l1.3-.25.4-.09c.43-.08.86-.19,1.3-.29l.14,0A57.93,57.93,0,0,0,134,122.55q1.2-1,2.37-2h0a52.16,52.16,0,0,0,1.67-7,79.85,79.85,0,0,1-9.8,2.1A84.77,84.77,0,0,1,118,116.56Z"/><path class="cls-38" d="M113.68,113.59c-1.24,1-2.52,1.94-3.84,2.83,2.71.18,5.41.22,8.11.14a84.77,84.77,0,0,0,10.32-1,79.85,79.85,0,0,0,9.8-2.1,52.29,52.29,0,0,0-.85-21.13c-.53.44-1.07.87-1.61,1.29-1,.74-1.91,1.46-2.89,2.16q-3.28,2.36-6.83,4.41s0,0-.06,0l-.12.16A57.53,57.53,0,0,1,113.68,113.59Z"/><path class="cls-39" d="M109.84,116.42c-1.57-.1-3.13-.24-4.71-.43-1.77-.22-3.53-.49-5.29-.83-1,1.08-2,2.13-3,3.15a57.18,57.18,0,0,1-9.14,7.17,57.23,57.23,0,0,0,12.43-3.72A56.63,56.63,0,0,0,109.84,116.42Z"/><path class="cls-40" d="M105.13,116c1.58.19,3.14.33,4.71.43,1.32-.89,2.6-1.84,3.84-2.83a57.53,57.53,0,0,0,12-13.16,44.92,44.92,0,0,1-22.8,13.6c-.86.21-1.71.39-2.57.54-.16.21-.33.4-.5.59C101.6,115.5,103.36,115.77,105.13,116Z"/><path class="cls-41" d="M52.68,125.6a84.37,84.37,0,0,1-6.82-22.7c-.08-.49-.16-1-.22-1.5s-.13-.91-.18-1.37c-.12-1.06-.23-2.12-.32-3.19,0-.37-.06-.74-.08-1.11-.05-.82-.1-1.64-.13-2.47,0-.34,0-.71,0-1.06-.73,1.45-1.4,2.93-2,4.42A57.81,57.81,0,0,0,39.05,112a55.08,55.08,0,0,0-.31,8.32,22.69,22.69,0,0,0,3,10.59c.38.65.76,1.29,1.16,1.92A53,53,0,0,0,49.28,141a51.6,51.6,0,0,0,10.13,8.2,74.85,74.85,0,0,0,11.11,1.7,84.92,84.92,0,0,1-15.23-20C54.36,129.11,53.48,127.37,52.68,125.6Z"/><path class="cls-42" d="M49.05,85.19a59.16,59.16,0,0,0-4.16,7h0c0,.35,0,.72,0,1.06,0,.83.08,1.65.13,2.47,0,.37,0,.74.08,1.11.09,1.07.2,2.13.32,3.19,0,.46.12.92.18,1.37s.14,1,.22,1.5a84.37,84.37,0,0,0,6.82,22.7c.8,1.77,1.68,3.51,2.61,5.22a84.92,84.92,0,0,0,15.23,20h0a76.22,76.22,0,0,0,11.21,0,60.38,60.38,0,0,1-6.12-3.23,58.37,58.37,0,0,1-23.34-26.92,57.07,57.07,0,0,1-3.72-12.43,58.95,58.95,0,0,1,.49-23.12Z"/><path class="cls-43" d="M130,128.81a75.35,75.35,0,0,0,5.78-6.48h0A74,74,0,0,1,130,128.81Z"/><path class="cls-44" d="M112.89,141.68A72.5,72.5,0,0,1,106,145,72.5,72.5,0,0,0,112.89,141.68Z"/><path class="cls-45" d="M81.74,150.89h0a77.93,77.93,0,0,0,9.5-1.3,78.16,78.16,0,0,1-9.5,1.29Z"/><path class="cls-46" d="M110.85,139.39a82,82,0,0,1-11-4.09h0l-1.48,0H97l-1,0-.66,0h-.16l-.34,0c-.45,0-.9,0-1.35-.08s-1.09-.09-1.64-.14l-.46,0-.47-.06-1.42-.18-.57-.09q-.66-.09-1.32-.21l-.66-.12-1.2-.24-.77-.17-1-.24-.92-.23-.84-.23L81,132.91l-.56-.17-1.39-.45-.18-.06c-.54-.19-1.08-.38-1.61-.59-.33-.11-.66-.24-1-.37l-.3-.12h0a58.22,58.22,0,0,1-9.13-4.67c-.78-.48-1.55-1-2.3-1.5h0a58.8,58.8,0,0,1-16-16.68,57.07,57.07,0,0,0,3.72,12.43,58.37,58.37,0,0,0,23.34,26.92,60.38,60.38,0,0,0,6.12,3.23h0a78.16,78.16,0,0,0,9.5-1.29c1-.21,2.07-.44,3.1-.69a76.6,76.6,0,0,0,8.13-2.47c1.2-.44,2.39-.91,3.55-1.41a72.5,72.5,0,0,0,6.86-3.34c.71-.38,1.42-.77,2.1-1.18C113.6,140.16,112.21,139.79,110.85,139.39Z"/><path class="cls-47" d="M77.27,131.64c.53.21,1.07.4,1.61.59-.87-.3-1.74-.62-2.6-1C76.61,131.4,76.94,131.53,77.27,131.64Z"/><path class="cls-48" d="M77.27,131.64c.53.21,1.07.4,1.61.59-.87-.3-1.74-.62-2.6-1C76.61,131.4,76.94,131.53,77.27,131.64Z"/><path class="cls-49" d="M136.39,120.55c-.77.69-1.56,1.37-2.36,2a57.87,57.87,0,0,1-22.52,11.13l-.15,0-1.3.3-.4.08-.73.14-.57.11-.39.07-1.58.25c-.24,0-.47.09-.71.12-1,.14-2,.25-2.93.33h0l-1.48.11-.66,0-.46,0h-.34a82,82,0,0,0,11,4.09c1.36.4,2.75.77,4.14,1.11h0a75.3,75.3,0,0,0,15-11.69,74,74,0,0,0,5.78-6.49h0C136,121.73,136.21,121.14,136.39,120.55Z"/><path class="cls-50" d="M52.68,125.6a84.37,84.37,0,0,1-6.82-22.7c-.08-.49-.16-1-.22-1.5s-.13-.91-.18-1.37c-.12-1.06-.23-2.12-.32-3.19,0-.37-.06-.74-.08-1.11-.05-.82-.1-1.64-.13-2.47,0-.34,0-.71,0-1.06-.73,1.45-1.4,2.93-2,4.42A57.81,57.81,0,0,0,39.05,112a55.08,55.08,0,0,0-.31,8.32,22.69,22.69,0,0,0,3,10.59c.38.65.76,1.29,1.16,1.92A53,53,0,0,0,49.28,141a51.6,51.6,0,0,0,10.13,8.2,74.85,74.85,0,0,0,11.11,1.7,84.92,84.92,0,0,1-15.23-20C54.36,129.11,53.48,127.37,52.68,125.6Z"/><path class="cls-51" d="M49.05,85.19a59.16,59.16,0,0,0-4.16,7h0c0,.35,0,.72,0,1.06,0,.83.08,1.65.13,2.47,0,.37,0,.74.08,1.11.09,1.07.2,2.13.32,3.19,0,.46.12.92.18,1.37s.14,1,.22,1.5a84.37,84.37,0,0,0,6.82,22.7c.8,1.77,1.68,3.51,2.61,5.22a84.92,84.92,0,0,0,15.23,20h0a76.22,76.22,0,0,0,11.21,0,60.38,60.38,0,0,1-6.12-3.23,58.37,58.37,0,0,1-23.34-26.92,57.07,57.07,0,0,1-3.72-12.43,58.95,58.95,0,0,1,.49-23.12Z"/><path class="cls-52" d="M110.85,139.39a82,82,0,0,1-11-4.09h0l-1.48,0H97l-1,0-.66,0h-.16l-.34,0c-.45,0-.9,0-1.35-.08s-1.09-.09-1.64-.14l-.46,0-.47-.06-1.42-.18-.57-.09q-.66-.09-1.32-.21l-.66-.12-1.2-.24-.77-.17-1-.24-.92-.23-.84-.23L81,132.91l-.56-.17-1.39-.45-.18-.06c-.54-.19-1.08-.38-1.61-.59-.33-.11-.66-.24-1-.37l-.3-.12h0a58.22,58.22,0,0,1-9.13-4.67c-.78-.48-1.55-1-2.3-1.5h0a58.8,58.8,0,0,1-16-16.68,57.07,57.07,0,0,0,3.72,12.43,58.37,58.37,0,0,0,23.34,26.92,60.38,60.38,0,0,0,6.12,3.23h0a78.16,78.16,0,0,0,9.5-1.29c1-.21,2.07-.44,3.1-.69a76.6,76.6,0,0,0,8.13-2.47c1.2-.44,2.39-.91,3.55-1.41a72.5,72.5,0,0,0,6.86-3.34c.71-.38,1.42-.77,2.1-1.18C113.6,140.16,112.21,139.79,110.85,139.39Z"/><path class="cls-53" d="M136.39,120.55c-.77.69-1.56,1.37-2.36,2a57.87,57.87,0,0,1-22.52,11.13l-.15,0-1.3.3-.4.08-.73.14-.57.11-.39.07-1.58.25c-.24,0-.47.09-.71.12-1,.14-2,.25-2.93.33h0l-1.48.11-.66,0-.46,0h-.34a82,82,0,0,0,11,4.09c1.36.4,2.75.77,4.14,1.11h0a75.3,75.3,0,0,0,15-11.69,74,74,0,0,0,5.78-6.49h0C136,121.73,136.21,121.14,136.39,120.55Z"/><path class="cls-54" d="M64.54,125c.75.53,1.52,1,2.3,1.5-.78-.48-1.54-1-2.3-1.49Z"/><path class="cls-55" d="M64.54,125c.75.53,1.52,1,2.3,1.5-.78-.48-1.54-1-2.3-1.49Z"/><path class="cls-56" d="M64.54,125c.75.53,1.52,1,2.3,1.5-.78-.48-1.54-1-2.3-1.49Z"/><path class="cls-57" d="M91.81,135c.55.05,1.09.11,1.64.14s.9.06,1.35.08c-.45,0-.9,0-1.35-.08S92.36,135.09,91.81,135Z"/><path class="cls-58" d="M91.81,135c.55.05,1.09.11,1.64.14s.9.06,1.35.08c-.45,0-.9,0-1.35-.08S92.36,135.09,91.81,135Z"/><path class="cls-59" d="M91.81,135c.55.05,1.09.11,1.64.14s.9.06,1.35.08c-.45,0-.9,0-1.35-.08S92.36,135.09,91.81,135Z"/><path class="cls-60" d="M98.31,135.33H97c-.35,0-.69,0-1,0l-.66,0,.66,0,1,0h1.31l1.48,0h0C99.29,135.32,98.8,135.34,98.31,135.33Z"/><path class="cls-61" d="M98.31,135.33H97c-.35,0-.69,0-1,0l-.66,0,.66,0,1,0h1.31l1.48,0h0C99.29,135.32,98.8,135.34,98.31,135.33Z"/><path class="cls-62" d="M98.31,135.33H97c-.35,0-.69,0-1,0l-.66,0,.66,0,1,0h1.31l1.48,0h0C99.29,135.32,98.8,135.34,98.31,135.33Z"/><path class="cls-63" d="M76,131.15h0l.3.12-.3-.12Z"/><path class="cls-64" d="M76,131.15h0l.3.12-.3-.12Z"/><path class="cls-65" d="M76,131.15h0l.3.12-.3-.12Z"/><path class="cls-66" d="M134,122.55a57.93,57.93,0,0,1-22.53,11.14l-.14,0,.15,0A57.87,57.87,0,0,0,134,122.55c.8-.63,1.59-1.31,2.36-2h0Q135.23,121.59,134,122.55Z"/><path class="cls-67" d="M134,122.55a57.93,57.93,0,0,1-22.53,11.14l-.14,0,.15,0A57.87,57.87,0,0,0,134,122.55c.8-.63,1.59-1.31,2.36-2h0Q135.23,121.59,134,122.55Z"/><path class="cls-68" d="M134,122.55a57.93,57.93,0,0,1-22.53,11.14l-.14,0,.15,0A57.87,57.87,0,0,0,134,122.55c.8-.63,1.59-1.31,2.36-2h0Q135.23,121.59,134,122.55Z"/><path class="cls-69" d="M106.39,134.67l1.58-.25.39-.07.57-.11.73-.14-1.3.25C107.71,134.48,107.05,134.57,106.39,134.67Z"/><path class="cls-70" d="M106.39,134.67l1.58-.25.39-.07.57-.11.73-.14-1.3.25C107.71,134.48,107.05,134.57,106.39,134.67Z"/><path class="cls-71" d="M106.39,134.67l1.58-.25.39-.07.57-.11.73-.14-1.3.25C107.71,134.48,107.05,134.57,106.39,134.67Z"/><path class="cls-72" d="M99.79,135.3Z"/><path class="cls-73" d="M99.79,135.3Z"/><path class="cls-74" d="M99.79,135.3Z"/><polygon class="cls-75" points="102.75 135.13 102.75 135.12 102.75 135.13 102.75 135.13"/><polygon class="cls-76" points="102.75 135.13 102.75 135.12 102.75 135.13 102.75 135.13"/><polygon class="cls-77" points="102.75 135.13 102.75 135.12 102.75 135.13 102.75 135.13"/><path class="cls-78" d="M100.15,135.28l.46,0-.61,0Z"/><path class="cls-79" d="M100.15,135.28l.46,0-.61,0Z"/><path class="cls-80" d="M100.15,135.28l.46,0-.61,0Z"/><path class="cls-81" d="M4.7,50.42c-.31.89-.62,1.79-.89,2.69-.07.21-.13.41-.19.62.06-.21.12-.41.19-.62C4.08,52.21,4.39,51.31,4.7,50.42Z"/><path class="cls-82" d="M42.23,7.49c.35-.19.71-.36,1.07-.53h0c-.36.17-.72.34-1.07.53h0Z"/><path class="cls-83" d="M12.33,43.45h0c-1.05.54-2.11,1-3.19,1.49q-1.37.59-2.79,1.11c-.6,1.43-1.14,2.89-1.65,4.37-.31.89-.62,1.79-.89,2.69A83.93,83.93,0,0,1,12.33,43.45Z"/><path class="cls-84" d="M12.33,43.45h0c-1.05.54-2.11,1-3.19,1.49q-1.37.59-2.79,1.11c-.6,1.43-1.14,2.89-1.65,4.37-.31.89-.62,1.79-.89,2.69A83.93,83.93,0,0,1,12.33,43.45Z"/><path class="cls-85" d="M42.23,7.49h0a58.14,58.14,0,0,1-6.17,14.1,58.54,58.54,0,0,1-6.88,9.15v0l0,0c.48-.29,1-.56,1.45-.82a84.6,84.6,0,0,1,16.92-7h0A51.75,51.75,0,0,0,43.3,7h0C42.94,7.13,42.58,7.3,42.23,7.49Z"/><path class="cls-86" d="M42.23,7.49h0a58.14,58.14,0,0,1-6.17,14.1,58.54,58.54,0,0,1-6.88,9.15v0l0,0c.48-.29,1-.56,1.45-.82a84.6,84.6,0,0,1,16.92-7h0A51.75,51.75,0,0,0,43.3,7h0C42.94,7.13,42.58,7.3,42.23,7.49Z"/><path class="cls-87" d="M20.56,56.86A57.62,57.62,0,0,0,43.08,45.72c.82-.63,1.6-1.31,2.37-2a51.92,51.92,0,0,0,2.11-20.78h0a84.6,84.6,0,0,0-16.92,7c-.49.26-1,.53-1.45.82l0,0a59.85,59.85,0,0,1-6.43,6,56.6,56.6,0,0,1-10.41,6.68h0a83.93,83.93,0,0,0-8.52,9.66c-.07.21-.13.41-.19.62-.11.36-.22.71-.32,1.07,0,.1,0,.21-.08.31-.28,1-.55,2.06-.79,3.1l0,.14A58.2,58.2,0,0,0,20.56,56.86Z"/><path class="cls-88" d="M20.56,56.86A57.62,57.62,0,0,0,43.08,45.72c.82-.63,1.6-1.31,2.37-2a51.92,51.92,0,0,0,2.11-20.78h0a84.6,84.6,0,0,0-16.92,7c-.49.26-1,.53-1.45.82l0,0a59.85,59.85,0,0,1-6.43,6,56.6,56.6,0,0,1-10.41,6.68h0a83.93,83.93,0,0,0-8.52,9.66c-.07.21-.13.41-.19.62-.11.36-.22.71-.32,1.07,0,.1,0,.21-.08.31-.28,1-.55,2.06-.79,3.1l0,.14A58.2,58.2,0,0,0,20.56,56.86Z"/><path class="cls-89" d="M42.23,7.49c-1.88.94-3.7,2-5.47,3,1.77-1.08,3.59-2.1,5.47-3Z"/><path class="cls-90" d="M6.35,46.05q1.43-.52,2.79-1.11c1.08-.46,2.14-.95,3.19-1.49h0A83.47,83.47,0,0,1,29.17,30.77v0a58.54,58.54,0,0,0,6.88-9.15A58.14,58.14,0,0,0,42.23,7.5c-1.88.93-3.7,1.95-5.47,3-1.39.85-2.75,1.73-4.07,2.67A75.91,75.91,0,0,0,6.35,46.05Z"/><path class="cls-91" d="M22.74,36.77a59.85,59.85,0,0,0,6.43-6A83.47,83.47,0,0,0,12.33,43.45,56.6,56.6,0,0,0,22.74,36.77Z"/><path class="cls-92" d="M.66,79.91h0c0-.24,0-.47,0-.71C.64,79.44.64,79.67.66,79.91Z"/><path class="cls-93" d="M.54,77.46c0,.58,0,1.16.08,1.74,0,.24,0,.47,0,.71a52,52,0,0,0,7-1.11A57.74,57.74,0,0,1,.54,77.46Z"/><path class="cls-94" d="M.54,77.46c0,.58,0,1.16.08,1.74,0,.24,0,.47,0,.71a52,52,0,0,0,7-1.11A57.74,57.74,0,0,1,.54,77.46Z"/><path class="cls-95" d="M33.92,60.77l-.63.9c-.44.65-.86,1.31-1.28,1.95s-.79,1.26-1.16,1.88S30,67,29.55,67.73h0c.77-.66,1.53-1.34,2.26-2A51.5,51.5,0,0,0,43.22,49.6a.08.08,0,0,1,0,0,84.93,84.93,0,0,0-8.1,9.49C34.73,59.62,34.32,60.19,33.92,60.77Z"/><path class="cls-96" d="M33.92,60.77l-.63.9c-.44.65-.86,1.31-1.28,1.95s-.79,1.26-1.16,1.88S30,67,29.55,67.73h0c.77-.66,1.53-1.34,2.26-2A51.5,51.5,0,0,0,43.22,49.6a.08.08,0,0,1,0,0,84.93,84.93,0,0,0-8.1,9.49C34.73,59.62,34.32,60.19,33.92,60.77Z"/><path class="cls-97" d="M45.45,43.71c-.77.7-1.55,1.38-2.37,2A57.62,57.62,0,0,1,20.56,56.86,58.2,58.2,0,0,1,2.4,58.35,75.08,75.08,0,0,0,.54,77.46a57.74,57.74,0,0,0,7.1,1.34l1.17-.29A51.63,51.63,0,0,0,29.55,67.74h0c.43-.75.85-1.49,1.3-2.23s.77-1.25,1.16-1.88.84-1.3,1.28-1.95l.63-.9c.4-.58.81-1.15,1.22-1.72a84.93,84.93,0,0,1,8.1-9.49h0A50.31,50.31,0,0,0,45.45,43.71Z"/><path class="cls-98" d="M45.45,43.71c-.77.7-1.55,1.38-2.37,2A57.62,57.62,0,0,1,20.56,56.86,58.2,58.2,0,0,1,2.4,58.35,75.08,75.08,0,0,0,.54,77.46a57.74,57.74,0,0,0,7.1,1.34l1.17-.29A51.63,51.63,0,0,0,29.55,67.74h0c.43-.75.85-1.49,1.3-2.23s.77-1.25,1.16-1.88.84-1.3,1.28-1.95l.63-.9c.4-.58.81-1.15,1.22-1.72a84.93,84.93,0,0,1,8.1-9.49h0A50.31,50.31,0,0,0,45.45,43.71Z"/><circle class="cls-99" cx="93.31" cy="68.7" r="20.56"/><circle class="cls-100" cx="93.31" cy="68.7" r="11.26"/></g></g></g></svg>